<svg version="1.1" xmlns="http://www.w3.org/2000/svg" viewBox="0 0 477.5514647004908 787.8317023198388" width="477.5514647004908" height="787.8317023198388" class="excalidraw-svg">
  <!-- svg-source:excalidraw -->
  
  <defs>
    <style class="style-fonts">
      
    </style>
    
  </defs>
  <rect x="0" y="0" width="477.5514647004908" height="787.8317023198388" fill="transparent"></rect><g stroke-linecap="round" transform="translate(10.000000000000028 9.999999999999886) rotate(0 164.00947289878644 157.5799720778378)"><path d="M230.85 13.54 C245.86 17.33, 259.42 29.44, 271.43 39.79 C283.43 50.14, 294.22 62.52, 302.88 75.65 C311.54 88.78, 319.14 103.73, 323.39 118.57 C327.64 133.41, 329.09 149.18, 328.39 164.7 C327.68 180.22, 324.64 197.23, 319.19 211.69 C313.73 226.15, 305.41 239.24, 295.65 251.47 C285.9 263.7, 273.85 275.75, 260.66 285.07 C247.46 294.39, 231.74 302.25, 216.46 307.38 C201.19 312.51, 185.07 315.56, 169.02 315.83 C152.97 316.11, 135.69 313.14, 120.16 309.04 C104.64 304.95, 89.49 299.64, 75.84 291.27 C62.18 282.91, 48.54 270.66, 38.23 258.86 C27.93 247.07, 20.29 234.74, 14.01 220.49 C7.74 206.24, 2.51 188.89, 0.59 173.38 C-1.33 157.86, -0.72 142.43, 2.48 127.4 C5.68 112.37, 12.07 96.73, 19.77 83.2 C27.47 69.66, 37.26 56.94, 48.68 46.19 C60.11 35.44, 73.86 26.06, 88.31 18.71 C102.75 11.37, 119.57 5.07, 135.36 2.13 C151.15 -0.8, 165.79 -1.54, 183.05 1.08 C200.31 3.7, 228.42 13.95, 238.91 17.85 C249.4 21.75, 247.13 22.01, 245.98 24.46 M175.86 -0.72 C191.42 -1.88, 207.17 5.84, 222.11 11.67 C237.05 17.51, 252.67 25.23, 265.51 34.28 C278.34 43.34, 290 53.57, 299.13 65.99 C308.27 78.4, 315.42 93.63, 320.33 108.78 C325.24 123.93, 328.58 141.52, 328.59 156.88 C328.6 172.23, 324.84 186.37, 320.4 200.91 C315.97 215.46, 310.58 231.02, 301.98 244.13 C293.39 257.24, 281.79 269.72, 268.84 279.6 C255.89 289.48, 239.63 297.37, 224.3 303.39 C208.98 309.42, 192.84 314.13, 176.9 315.72 C160.97 317.31, 144.09 316.48, 128.7 312.94 C113.31 309.41, 98.27 302.2, 84.56 294.5 C70.85 286.81, 57.76 277.73, 46.44 266.76 C35.13 255.79, 24.19 242.9, 16.66 228.69 C9.14 214.48, 3.8 197.09, 1.28 181.51 C-1.25 165.92, -0.66 150.28, 1.5 135.2 C3.67 120.12, 7.54 105.06, 14.26 91.03 C20.98 76.99, 30.76 62.61, 41.81 50.98 C52.86 39.36, 66.71 29.13, 80.56 21.29 C94.4 13.45, 109.28 7.44, 124.87 3.94 C140.46 0.44, 165.98 0.62, 174.08 0.29 C182.18 -0.04, 173.67 -0.89, 173.47 1.98" stroke="none" stroke-width="0" fill="#a5d8ff"></path><path d="M157.38 0.38 C172.69 -2.89, 190.52 1.06, 206.1 4.86 C221.69 8.66, 237.19 14.92, 250.9 23.17 C264.6 31.43, 277.73 42.73, 288.33 54.38 C298.93 66.04, 308.24 78.8, 314.51 93.11 C320.77 107.41, 323.96 124.81, 325.92 140.21 C327.88 155.61, 329.07 170.44, 326.24 185.51 C323.42 200.59, 316.68 216.93, 308.97 230.65 C301.26 244.37, 291.15 256.83, 279.99 267.82 C268.82 278.81, 256.18 289.13, 241.98 296.61 C227.79 304.09, 210.85 309.71, 194.81 312.7 C178.76 315.7, 161.59 316.36, 145.72 314.58 C129.84 312.8, 114.35 308.36, 99.56 302.04 C84.77 295.72, 69.47 286.64, 56.97 276.66 C44.47 266.68, 33.2 255.16, 24.56 242.15 C15.92 229.15, 9.22 213.53, 5.12 198.61 C1.03 183.69, -0.72 168.16, -0.01 152.64 C0.7 137.12, 4.23 120.08, 9.4 105.48 C14.57 90.88, 21.49 77.29, 31.03 65.06 C40.57 52.82, 53.68 41.57, 66.63 32.07 C79.59 22.58, 91.57 13.49, 108.77 8.1 C125.97 2.7, 157.72 0.42, 169.82 -0.29 C181.93 -1.01, 181.65 1.19, 181.41 3.8 M230.66 15.01 C245.73 18.87, 261.17 29.38, 273.24 39.64 C285.31 49.9, 294.91 63.33, 303.08 76.57 C311.25 89.81, 318.22 104.34, 322.26 119.09 C326.3 133.84, 327.85 149.56, 327.29 165.07 C326.74 180.57, 324.5 197.49, 318.92 212.11 C313.34 226.74, 303.6 240.68, 293.81 252.82 C284.01 264.95, 272.93 275.98, 260.14 284.94 C247.35 293.91, 232.57 301.71, 217.07 306.62 C201.57 311.52, 183.4 313.78, 167.14 314.4 C150.88 315.01, 134.82 314.25, 119.53 310.32 C104.24 306.38, 89.13 299.27, 75.4 290.78 C61.66 282.29, 47.75 271.42, 37.12 259.37 C26.49 247.33, 17.52 232.9, 11.6 218.53 C5.69 204.16, 3.01 188.72, 1.64 173.15 C0.27 157.59, 0.51 140.19, 3.39 125.13 C6.26 110.08, 11.49 96.43, 18.9 82.85 C26.3 69.26, 36.27 54.38, 47.81 43.6 C59.36 32.82, 73.76 25.22, 88.16 18.16 C102.56 11.11, 118.32 3.92, 134.2 1.28 C150.09 -1.37, 167.21 0.36, 183.46 2.31 C199.71 4.26, 224.19 10.75, 231.69 12.97 C239.2 15.19, 229.89 12.95, 228.49 15.6" stroke="#1971c2" stroke-width="2" fill="none"></path></g><g stroke-linecap="round" transform="translate(179.22607252163255 455.68182892876155) rotate(0 144.16269608942912 161.0749366955386)"><path d="M181.25 40.5 C206.21 65.67, 228 94.83, 252.08 121.5 C287.35 161.48, 291.83 165.29, 252.08 202.5 C225.43 231.16, 200.26 258.12, 181.25 281.65 C144.06 321.62, 146.9 322.49, 108.75 281.65 C85.82 256.01, 60.63 225.26, 36.25 202.5 C2.97 162.15, -2.96 160.63, 36.25 121.5 C51.56 104.45, 63.39 86.88, 108.75 40.5 C147.63 -0.92, 144.63 -0.53, 181.25 40.5" stroke="none" stroke-width="0" fill="#a5d8ff"></path><path d="M181.25 40.5 C199.84 62.38, 215.06 83.43, 252.08 121.5 M181.25 40.5 C207.72 69.91, 233.74 100.06, 252.08 121.5 M252.08 121.5 C289.61 160.26, 289.81 162.46, 252.08 202.5 M252.08 121.5 C287.95 161.45, 288.15 163.19, 252.08 202.5 M252.08 202.5 C235.73 220.09, 217.67 239.19, 181.25 281.65 M252.08 202.5 C222.96 233.87, 195.49 264.76, 181.25 281.65 M181.25 281.65 C144.85 321.44, 143.72 322.71, 108.75 281.65 M181.25 281.65 C146.95 321.8, 146.32 320.1, 108.75 281.65 M108.75 281.65 C91.27 263.78, 77.35 247.54, 36.25 202.5 M108.75 281.65 C84.72 256.37, 61.12 229.36, 36.25 202.5 M36.25 202.5 C0.13 162.66, -1.13 163.28, 36.25 121.5 M36.25 202.5 C0.51 163.79, 1.99 163, 36.25 121.5 M36.25 121.5 C62.94 93.21, 88.93 65.55, 108.75 40.5 M36.25 121.5 C59.4 96.93, 79.8 72.32, 108.75 40.5 M108.75 40.5 C143.03 -0.43, 144.52 -0.11, 181.25 40.5 M108.75 40.5 C145.68 -1, 143.53 0.4, 181.25 40.5" stroke="#f08c00" stroke-width="2" fill="none"></path></g></svg>